# xmcd CD database file
#
# Track frame offsets:
#	150
#	4786
#	7782
#	10977
#	14827
#	18553
#	20992
#	33304
#	37958
#	42612
#
# Disc length: 620 seconds
#
# Revision: 0
# Processed by: cddbd v1.5.2PL0 Copyright (c) Steve Scherf et al.
# Submitted via: CDex 1.50
#
DISCID=74026a0a
DTITLE=Haggari Nakashe and gaop - Tea Time With Clint
DYEAR=2007
DGENRE=Jazz
TTITLE0=a message to you
TTITLE1=pick up the phone!
TTITLE2=another message to you
TTITLE3=much love
TTITLE4=xmasstimeagain
TTITLE5=hugs and kisses, bye bye.
TTITLE6=muppet force one
TTITLE7=peace
TTITLE8=happy endings
TTITLE9=god in food
EXTD=YEAR: 2007
EXTT0=
EXTT1=
EXTT2=
EXTT3=
EXTT4=
EXTT5=
EXTT6=
EXTT7=
EXTT8=
EXTT9=
PLAYORDER=
